<?xml version="1.0" encoding="utf-8"?>
<!-- Generator: Adobe Illustrator 26.0.1, SVG Export Plug-In . SVG Version: 6.00 Build 0)  -->
<svg version="1.1" id="Layer_1" xmlns="http://www.w3.org/2000/svg" xmlns:xlink="http://www.w3.org/1999/xlink" x="0px" y="0px"
	 viewBox="0 0 456 337.41" style="enable-background:new 0 0 456 337.41;" xml:space="preserve">
<style type="text/css">
	.st0{fill:#FFFFFF;}
</style>
<path class="st0" d="M223.99,58.57c-12.9,0-20.17,11.24-20.17,22.82c0,11.24,5.29,21.16,15.21,32.08
	c16.2-11.24,24.47-19.84,24.47-32.74C243.5,70.14,237.22,58.57,223.99,58.57z"/>
<path class="st0" d="M181,185.88c0,18.85,14.22,35.05,37.04,35.05c13.23,0,24.14-4.96,30.75-11.24
	c-13.89-13.89-32.08-34.06-50.26-54.56C189.27,161.74,181,171.33,181,185.88z"/>
<path class="st0" d="M282.94,249.51c-3.38-3.64-6.85-7.41-10.67-11.71c-5.82,4.5-12.55,8.5-20.21,11.71h3.47v0H282.94z"/>
<path class="st0" d="M403.65,53.81c-20.96-15.8-50.93-21.6-92.19-21.6h-28.66v0h-29.37c19.73,7.88,32.74,24.57,32.74,47.2
	c0,22.49-13.23,41.67-43.98,57.21l-0.33,1.32c12.9,14.22,26.45,30.42,37.37,41.67c11.86-11.86,17.91-16.14,18.36-91.72V68.33
	c4.9,0,11.28-0.02,22.25-0.02c42.24,0,68.67,23.86,68.35,69c0,51.91-29.02,76.41-73.51,76.09c-2.12,0-3.96-0.04-5.75-0.09
	c9.9,11.19,20.03,22.58,30.71,34.17c26.44-3.21,48.72-10.51,64.67-23.77c20.96-17.73,36.11-46.43,36.11-88.02
	C440.4,97.33,426.22,70.57,403.65,53.81z"/>
<path class="st0" d="M133.38,194.15c0-29.43,16.86-50.6,42.33-63.82v-1.32c-9.59-10.58-16.86-27.12-16.86-42.99
	c0-21.22,12.64-43.95,38.05-53.81H144l-62.07,96.08V32.21H23.41v217.3h58.51v-61.88l23.59-32.98l32.27,94.86h32.73
	C145.06,238.12,133.38,215.9,133.38,194.15z"/>
<path class="st0" d="M72.28,298.89c-0.25-4.45-0.5-9.4-0.35-13.2h-0.2c-0.75,3.75-1.65,7.75-2.7,11.7l-4.15,15.8h-2.45l-3.95-15.15
	c-1.1-4.3-2.1-8.45-2.75-12.35h-0.15c0,3.95-0.2,8.65-0.4,13.45l-0.65,14.25h-3.45l2-33.7h4.15l3.95,15.4c1.15,4.45,2,7.75,2.7,11.6
	h0.15c0.65-3.85,1.4-7.05,2.5-11.6l3.8-15.4h4.3l1.95,33.7h-3.6L72.28,298.89z"/>
<path class="st0" d="M154.13,297.39h-8.45v12.65h9.6v3.35h-13.45v-33.7h12.85v3.35h-9v11.1h8.45V297.39z"/>
<path class="st0" d="M219.53,280.19c1.5-0.45,3.25-0.65,5.2-0.65c3.55,0,6.05,0.9,7.9,2.55c2.6,2.25,4.55,6.6,4.55,13.65
	c0,7.7-1.9,11.9-4.05,14.2c-2.2,2.5-5.4,3.65-9.3,3.65c-1.55,0-3.15-0.1-4.3-0.35V280.19z M223.38,310.24c0.55,0.1,1.1,0.1,1.45,0.1
	c4.25,0,8.35-3.05,8.35-14.5c0-8.5-2.6-13.15-8-13.15c-0.6,0-1.3,0.05-1.8,0.2V310.24z"/>
<path class="st0" d="M305.63,279.69v33.7h-3.85v-33.7H305.63z"/>
<path class="st0" d="M375.78,303.29l-2.25,10.1h-3.7l7.7-33.7h4.25l7.5,33.7h-3.8l-2.25-10.1H375.78z M382.73,300.19l-1.75-8.55
	c-0.5-2.4-0.95-5.2-1.35-7.7h-0.2c-0.4,2.55-0.9,5.45-1.35,7.7l-1.75,8.55H382.73z"/>
<path class="st0" d="M110.73,296.33c0,2.58-2.09,4.67-4.67,4.67c-2.58,0-4.67-2.09-4.67-4.67c0-2.58,2.09-4.67,4.67-4.67
	C108.64,291.67,110.73,293.76,110.73,296.33"/>
<path class="st0" d="M193.4,296.33c0,2.58-2.09,4.67-4.67,4.67c-2.58,0-4.67-2.09-4.67-4.67c0-2.58,2.09-4.67,4.67-4.67
	C191.31,291.67,193.4,293.76,193.4,296.33"/>
<path class="st0" d="M274.23,296.33c0,2.58-2.09,4.67-4.67,4.67c-2.58,0-4.67-2.09-4.67-4.67c0-2.58,2.09-4.67,4.67-4.67
	C272.14,291.67,274.23,293.76,274.23,296.33"/>
<path class="st0" d="M345.36,296.33c0,2.58-2.09,4.67-4.67,4.67c-2.58,0-4.67-2.09-4.67-4.67c0-2.58,2.09-4.67,4.67-4.67
	C343.27,291.67,345.36,293.76,345.36,296.33"/>
</svg>
