<?xml version="1.0" encoding="utf-8"?>
<!-- Generator: Adobe Illustrator 26.0.1, SVG Export Plug-In . SVG Version: 6.00 Build 0)  -->
<svg version="1.1" id="Layer_1" xmlns="http://www.w3.org/2000/svg" xmlns:xlink="http://www.w3.org/1999/xlink" x="0px" y="0px"
	 viewBox="0 0 70 70" style="enable-background:new 0 0 70 70;" xml:space="preserve">
<path d="M52.2,4H17.8C10.2,4,4,10.2,4,17.8v34.4C4,59.8,10.2,66,17.8,66h34.4C59.8,66,66,59.8,66,52.2V17.8C66,10.2,59.8,4,52.2,4z
	 M52.4,26.4c0,0.3,0,0.6,0,1.2c0,11.2-8.6,24.2-24.2,24.2c-4.7,0-9.2-1.5-13-3.8c0.6,0,1.5,0,2.1,0c3.8,0,7.7-1.5,10.6-3.5
	c-3.8,0-6.8-2.7-8-5.9c0.6,0,1.2,0.3,1.5,0.3c0.9,0,1.5,0,2.4-0.3c-3.8-0.9-6.8-4.1-6.8-8.3c1.2,0.6,2.4,0.9,3.8,1.2
	C18.4,29.4,17,27,17,24.1c0-1.5,0.3-3,1.2-4.1c4.1,5,10.3,8.6,17.4,8.9c0-0.6-0.3-1.2-0.3-2.1c0-4.7,3.8-8.6,8.6-8.6
	c2.4,0,4.7,0.9,6.2,2.7c2.1-0.3,3.8-1.2,5.3-2.1c-0.6,2.1-2.1,3.5-3.8,4.7c1.8-0.3,3.2-0.6,5-1.5C55.3,23.8,53.9,25.3,52.4,26.4z"/>
</svg>
